:SAMPLES-PER-SECOND 30
:FULLY-SPECIFIED
:DEGREES
602
root  0.0252262 34.3937 17.4157 5.89931 36.5942 -1.18807
LeftUpLeg  -10.636 9.06348 0.0068978
LeftLeg  10.1618 2.81712 0.318671
LeftFoot  0.811393 -0.000232139 0.0327752
LeftToes  -13.5379 6.91067e-007 1.07128e-007
Spine  4.19407 0.717994 -1.30851
Spine1  8.29275 1.33885 -2.23506
RightShoulder  -0.0166394 7.70938 3.37425
RightArm  -39.6093 -18.9143 75.642
RightForeArm  20.2498 33.6378 6.73681
RightHand  0.752785 -9.30495 -8.85419
LeftShoulder1  0.031308 0.661386 -6.75771
LeftArm  -0.438276 3.70079 -68.6477
LeftForeArm  22.0856 -52.3923 -13.2628
LeftHand  0.147057 7.05472 2.01339
HEad  -3.5276 26.4279 -6.68458
RightUpLeg  -25.3416 -20.3235 -1.97671
RightLeg  34.0397 0.949229 0.542407
RightFoot  3.63287 0.0107755 0.0377658
RightToes  -32.8917 -0.164332 -0.271553
603
root  0.162689 34.3473 17.9238 7.09572 37.5499 -0.332387
LeftUpLeg  -10.5045 8.88704 -0.31333
LeftLeg  10.0441 2.12747 0.236003
LeftFoot  0.400222 -0.000354501 0.00725991
LeftToes  -14.6641 6.91067e-007 1.07128e-007
Spine  4.28313 0.693475 -1.47905
Spine1  8.46835 1.27806 -2.5373
RightShoulder  -0.0163603 7.80681 3.30133
RightArm  -41.3138 -18.5119 76.3899
RightForeArm  20.9277 33.0019 6.57473
RightHand  0.717702 -9.1663 -8.55902
LeftShoulder1  0.035395 0.286183 -6.93409
LeftArm  -3.37056 3.92836 -68.2331
LeftForeArm  21.9235 -53.3245 -13.7298
LeftHand  0.156995 7.16868 2.13389
HEad  -3.76793 27.0463 -6.71239
RightUpLeg  -26.1294 -21.5145 -2.17872
RightLeg  24.9064 1.44694 0.557483
RightFoot  4.71847 0.0114727 0.0990677
RightToes  -33.5287 -0.168959 -0.275728
604
root  0.29954 34.2913 18.4617 8.38764 38.4017 0.645176
LeftUpLeg  -10.4372 8.55254 -0.657691
LeftLeg  10.1509 1.70687 0.19234
LeftFoot  -0.165526 -0.000843348 -0.0122863
LeftToes  -15.2799 6.91067e-007 1.07128e-007
Spine  4.32814 0.723381 -1.68202
Spine1  8.55301 1.31928 -2.88432
RightShoulder  -0.0157339 7.75635 3.37607
RightArm  -42.5657 -18.3292 77.0045
RightForeArm  21.2746 32.3691 6.41575
RightHand  0.691792 -9.31678 -8.09889
LeftShoulder1  0.0403419 0.08556 -7.34023
LeftArm  -7.84081 4.40504 -67.6243
LeftForeArm  20.7284 -53.474 -13.806
LeftHand  0.21628 7.39153 2.97467
HEad  -4.64917 27.4932 -6.92204
RightUpLeg  -26.8756 -22.6614 -2.36856
RightLeg  16.2257 2.69245 0.599003
RightFoot  4.39778 0.00825709 0.194373
RightToes  -33.581 -0.165961 -0.273038
605
root  0.449986 34.2203 19.0408 9.88583 39.0983 1.84904
LeftUpLeg  -10.3739 8.09944 -1.10352
LeftLeg  10.344 1.48059 0.171725
LeftFoot  -0.695888 -0.00179119 -0.0235057
LeftToes  -16.36 6.91067e-007 1.07128e-007
Spine  4.2799 0.800195 -1.92394
Spine1  8.45098 1.44665 -3.28803
RightShoulder  -0.014891 7.71921 3.36652
RightArm  -43.1068 -18.4058 77.4742
RightForeArm  21.431 31.6001 6.22563
RightHand  0.666912 -9.35917 -7.75836
LeftShoulder1  0.0466108 -0.220902 -7.96474
LeftArm  -13.9504 5.38536 -66.4072
LeftForeArm  18.2932 -54.1562 -14.1622
LeftHand  0.296096 8.23018 3.74072
HEad  -5.71942 27.7774 -7.37559
RightUpLeg  -27.4919 -23.2468 -2.79023
RightLeg  8.36516 3.06187 0.252145
RightFoot  4.89205 0.00620407 0.255015
RightToes  -32.8965 -0.164367 -0.271585
606
root  0.628693 34.1251 19.686 11.3959 39.8062 3.35147
LeftUpLeg  -10.0135 7.88665 -1.64755
LeftLeg  10.579 0.94654 0.11327
LeftFoot  -1.35976 -0.00331534 -0.023655
LeftToes  -17.4756 6.91067e-007 1.07128e-007
Spine  4.27562 0.842025 -2.20412
Spine1  8.44165 1.50948 -3.76151
RightShoulder  -0.0138425 7.7383 3.29855
RightArm  -43.5677 -18.4882 77.8286
RightForeArm  22.3161 30.8169 6.03529
RightHand  0.590591 -9.34427 -6.84227
LeftShoulder1  0.051282 -0.178056 -8.5922
LeftArm  -19.7953 6.19158 -64.3635
LeftForeArm  15.5546 -55.5778 -14.9466
LeftHand  0.560063 9.51652 6.3462
HEad  -6.97615 27.9711 -7.97441
RightUpLeg  -28.4371 -25.1921 -2.72587
RightLeg  2.78833 2.90606 -0.0445166
RightFoot  5.17071 0.00505204 0.265627
RightToes  -34.2983 -0.174612 -0.280703
607
root  0.813038 34.0032 20.3873 12.796 40.3817 4.87924
LeftUpLeg  -9.63963 7.85069 -2.08912
LeftLeg  11.2703 0.355792 0.0460957
LeftFoot  -2.27972 -0.00561164 -0.00877079
LeftToes  -18.674 6.91067e-007 1.07128e-007
Spine  4.23266 0.963831 -2.40329
Spine1  8.35164 1.73132 -4.05121
RightShoulder  -0.0125637 7.79083 3.20532
RightArm  -43.678 -18.8135 77.7127
RightForeArm  23.2078 30.0907 5.86159
RightHand  0.515327 -9.28408 -5.96602
LeftShoulder1  0.0562601 -0.36081 -8.85817
LeftArm  -25.5886 7.09175 -61.9664
LeftForeArm  16.2504 -57.2766 -15.9715
LeftHand  0.800696 9.11133 9.64629
HEad  -7.37426 28.1255 -8.43346
RightUpLeg  -30.0314 -26.2688 -2.97709
RightLeg  1.58385 1.20039 -0.0435267
RightFoot  4.16564 0.00996576 0.103507
RightToes  -35.055 -0.180234 -0.285519
608
root  0.974486 33.8775 21.1651 13.7085 41.0351 5.98793
LeftUpLeg  -9.05226 7.52467 -1.98126
LeftLeg  12.1593 -0.0323286 -0.00622773
LeftFoot  -3.27562 -0.00828525 0.0159312
LeftToes  -20.1059 6.91067e-007 1.07128e-007
Spine  4.29078 1.05664 -2.42356
Spine1  8.46259 1.89253 -4.01222
RightShoulder  -0.0110155 7.89592 3.2929
RightArm  -43.5915 -18.8843 77.0439
RightForeArm  23.8398 29.1749 5.64627
RightHand  0.478826 -9.43508 -5.42366
LeftShoulder1  0.0580058 -0.0132734 -8.86445
LeftArm  -30.6943 7.1629 -59.2633
LeftForeArm  17.9942 -58.9482 -17.0844
LeftHand  0.920637 8.41379 12.0871
HEad  -7.38875 28.1238 -8.76015
RightUpLeg  -30.0106 -25.2773 -4.08328
RightLeg  1.57018 -2.41016 0.0895772
RightFoot  4.13941 0.0190344 -0.149124
RightToes  -33.1602 -0.166277 -0.273319
